<?xml version="1.0" encoding="UTF-8"?>
<svg width="960px" height="960px" viewBox="0 0 960 960" version="1.1" xmlns="http://www.w3.org/2000/svg" xmlns:xlink="http://www.w3.org/1999/xlink">
    <!-- Generator: Sketch 60.1 (88133) - https://sketch.com -->
    <title>me.nanoleaf/pair_nanoleaf_hexagon2</title>
    <style type="text/css">
		.pair  {
			animation: pair 10s infinite;
		}
	
		.one {animation: succes-animation-one 10s infinite;}
		.two {animation: succes-animation-two 10s infinite;}
		.three {animation: succes-animation-three 10s infinite;}
		.four {animation: succes-animation-four 10s infinite;}
		.five {animation: succes-animation-five 10s infinite;}
		
		.white {
			fill: rgb(255,255,255);
		}
		
		@keyframes pair {
			0%, 40%, 100% {
				fill: rgba(0,0,0,0);
			}
			5%, 35% {
				fill: #0078CC;
			}
		}
		
		
		@keyframes succes-animation-one {
			0%, 47%, 53%, 72%, 78%, 100% {
				fill: rgba(0,0,0,0);
			}
		    50%, 75% {
		        fill: #0078CC;
		    }
		}
		@keyframes succes-animation-two {
			0%, 40%, 52%, 58%, 77%, 83%, 100% {
				fill: rgba(0,0,0,0);
			}
		    55%, 80% {
		        fill: #0078CC;
		    }
		}
		@keyframes succes-animation-three {
			0%, 57%, 63%, 82%, 88%, 100% {
				fill: rgba(0,0,0,0);
			}
		    60%, 85% {
		        fill: #0078CC;
		    }
		}
		@keyframes succes-animation-four {
			0%, 62%, 68%, 87%, 93%, 100% {
				fill: rgba(0,0,0,0);
			}
		    65%, 90% {
		        fill: #0078CC;
		    }
		}	
		@keyframes succes-animation-five {
			0%, 64%, 66%, 73%, 92%, 98%, 100% {
				fill: rgba(0,0,0,0);
			}
		    70%, 95% {
		        fill: #0078CC;
		    }
		}					
	</style>
    <g id="me.nanoleaf/pair_nanoleaf_hexagon2" stroke="none" stroke-width="1" fill="none" fill-rule="evenodd">
        <path d="M10,396 L950,396 L865.674574,548.965931 C860.221853,558.857142 849.821057,565 838.526445,565 L121.235169,565 C109.927274,565 99.5164436,558.842815 94.0691578,548.933448 L10,396 L10,396 Z" id="Rectangle" stroke="#000000" stroke-width="15" stroke-linejoin="round"></path>
        <circle class="pair" fill="#306EFF" cx="167" cy="478" r="46"></circle>
        <circle class="one" fill="#306EFF" cx="292" cy="478" r="46"></circle>
        <circle class="two" fill="#306EFF" cx="417" cy="478" r="46"></circle>
        <circle class="three" fill="#306EFF" cx="542" cy="478" r="46"></circle>
        <circle class="four" fill="#306EFF" cx="667" cy="478" r="46"></circle>
        <circle class="five" fill="#306EFF" cx="792" cy="478" r="46"></circle>
        <g id="Group-3" transform="translate(143.000000, 452.000000)" fill="#000000" fill-rule="nonzero">
            <path d="M35.2980501,8.47003105 C33.6935933,10.103997 33.6935933,12.554946 35.2980501,14.188912 C38.2395543,17.3206802 39.9777159,21.4055952 39.9777159,25.7628378 C39.9777159,34.7496507 32.7576602,42.1024977 23.9331476,42.1024977 C15.1086351,42.1024977 7.88857939,34.7496507 7.88857939,25.7628378 C7.88857939,20.8609398 10.0278552,16.3675333 13.637883,13.2357652 C15.3760446,11.737963 15.643454,9.28701405 14.1727019,7.51688423 C12.7019499,5.7467544 10.2952646,5.47442674 8.55710306,6.9722289 C3.07520891,11.6017992 0,18.4099908 0,25.626674 C0,39.1068934 10.6963788,50 23.9331476,50 C37.1699164,50 48,39.1068934 48,25.7628378 C48,19.2269738 45.45961,13.0996014 40.913649,8.47003105 C39.3091922,6.83606506 36.902507,6.83606506 35.2980501,8.47003105 Z" id="Path"></path>
            <path d="M24,26 C21.8666667,26 20,24.257732 20,21.9793814 L20,4.02061856 C20,1.87628866 21.7333333,0 24,0 C26.1333333,0 28,1.74226804 28,4.02061856 L28,21.9793814 C28,24.257732 26.2666667,26 24,26 Z" id="Path"></path>
        </g>
    </g>
</svg>