<?xml version="1.0" encoding="utf-8"?>
<!-- Generator: Adobe Illustrator 24.3.0, SVG Export Plug-In . SVG Version: 6.00 Build 0)  -->
<svg version="1.1" id="Layer_1" xmlns="http://www.w3.org/2000/svg" xmlns:xlink="http://www.w3.org/1999/xlink" x="0px" y="0px"
	 viewBox="0 0 960 960" style="enable-background:new 0 0 960 960;" xml:space="preserve">
<style type="text/css">
	.st0{stroke:#000000;stroke-width:8;stroke-linejoin:round;}
</style>
<desc>Created with Sketch.</desc>
<g id="me.nanoleaf_x2F_nanoleaf_x5F_aurora">
	<path id="Shape" class="st0" d="M871.7,197.2c-2.2-2.2-4.4-4.3-6.7-6.5c-49,24.6-98.1,49.1-147.1,73.7l-97.2,50.3l-2.7,1.4
		l-0.7,2.5L477.3,198.6l-4.2-3.6l-4.6,3.1l-0.8,0.5l-3.8-3.5l-4.6,2.7L281.6,302.2l-0.6,0.4l-2.8,1.7l-0.5,3.2l-0.5,3.4l-1.6,1
		l-3,0.2l-1.5,4.6l-33,103.1L235,419l-4.6-1.2l-2.9,3.7L16.1,689.3l-3.1,3.8l2.5,4.2l8.6,14.2l1.6,2.6l2.9,0.7L472,822.3l3,0.7
		l2.6-1.6l8.3-5.3l1.9-1.2l0.9-2l4.6-10.6l1.5-3.5l-2-3.2L381.2,623l3.3-1.3l2.2-11.2l-15.6-23.4l-8.9-0.8l-4.1,1.1l-55.6-86
		l94.2-49l1.3-0.7L528,596.7l1.5,1.6l2.2,0.5l5.8,1.3l3.5,0.9l2.3-2l4.2,2.7l3.2,2l3.5-1.6l239.3-107.1l3.6-1.6l0.5-3.9l0.8-5.6
		l5.9-2.7l3.1-1.4l0.9-3.3l68.3-269.5l1-3.9l-2.9-2.9L871.7,197.2z M362.1,591l6.2,0.5l13.7,20.3l-1.4,7.3l-2,0.8L360,591.5
		L362.1,591z M451,751.3L433.7,792L91.7,706.1L62,649.6L215.4,455l52.2,14.9L451,751.3z M362.8,450.5L290.5,488l-39.4-60.9l-0.9-1.3
		l-1.3-0.3l25.3-79l19-11.4l78.7,87.5L362.8,450.5z M380.3,414L301,326.3l7.5-23.1l133-77.2l11.5,10.1l-50.5,166.1L380.3,414z
		 M463.2,237.1l22.5-13.1L586,310.5l-8.1,27.9L426.6,418L413,403.8L463.2,237.1z M544.5,553.5L518.9,565L421,456.9l8-27.1L581.2,350
		l16.8,15.4L544.5,553.5z M751.2,495.4L573.3,574L555,555.5l53.6-188.3l27.1-14.2L760,461L751.2,495.4z M801.7,436.8L769.4,451
		L646,342.3l6.9-28L832.2,221l20.8,14.9L801.7,436.8z"/>
</g>
</svg>
