<?xml version="1.0" encoding="utf-8"?>
<!-- Generator: Adobe Illustrator 22.1.0, SVG Export Plug-In . SVG Version: 6.00 Build 0)  -->
<svg version="1.1" id="Layer_1" xmlns="http://www.w3.org/2000/svg" xmlns:xlink="http://www.w3.org/1999/xlink" x="0px" y="0px"
	 viewBox="0 0 1107.7 832.2" style="enable-background:new 0 0 1107.7 832.2;" xml:space="preserve">
<style type="text/css">
	.st0{fill:#231F20;}
</style>
<g>
	<path class="st0" d="M565.1,82l-18.6-16.3L373.7,166.1l-10.7,33l104.3,115.8l32.4-17.4L565.1,82z M468.2,310L367.5,198.2l9.5-29.4
		l169.1-98.3l14.6,12.8l-64.1,211.6L468.2,310z"/>
	<path class="st0" d="M527.5,328.2l-11.3,38.2L644.1,508l36.7-16.5l69.3-244.2l-25.2-23.1L527.5,328.2z M677.6,488.7l-32.5,14.6
		L520.6,365.4l10.2-34.5l193.6-101.8l21.4,19.5L677.6,488.7z"/>
	<path class="st0" d="M756.7,247.8l-69.5,244.4l26.9,27.2l231.3-102.3l12.4-48.2L795.2,227.6L756.7,247.8z M942.2,414.2L715,514.7
		l-23.4-23.6L760,250.5l34.6-18.2l158.9,137.9L942.2,414.2z"/>
	<path class="st0" d="M812.6,180.7l-9.8,39.8l160.8,141.7l45-19.9l66.5-260.5l-30.7-22L812.6,180.7z M1005.3,339.5l-41,18.1
		L807.2,219.1l8.8-35.7l228.1-118.9l26.5,19L1005.3,339.5z"/>
</g>
<path class="st0" d="M1088.8,28l-2.8-2.8l0.2-1.6l-33.8-22.7c-1.6-1.1-3.6-1.2-5.3-0.3L915.7,69.9c-2.3,1.2-4,3.4-4.7,5.9
	l-11.4,43.3l-124.7,64.6l-3.5,1.8l-0.9,3.2L592.1,35.8l-5.3-4.6l-5.8,4l-1,0.7l-4.8-4.4l-5.8,3.4L342.6,167.8l-0.8,0.5l-3.6,2.2
	l-0.7,4.1l-0.7,4.3l-2.1,1.3l-3.8,0.3l-1.9,5.9l-41.9,131.5l-3.9-1l-5.8-1.5l-3.7,4.7L3.9,661.7L0,666.6l3.2,5.4l10.9,18.1l2,3.3
	l3.7,0.9l565.4,137l3.8,0.9l3.3-2.1l10.6-6.8l2.4-1.5l1.1-2.6l5.8-13.5l1.9-4.5l-2.6-4.1L469.6,577.4l4.3-1.8l2.8-14.5l-20-30
	l-11.4-1l-5.3,1.5l-70.7-109.5l120.1-62.5l1.7-0.9l165.7,185.1l1.9,2.1l2.8,0.7l7.4,1.7l4.5,1.1l2.9-2.6l5.4,3.4l4.1,2.6l3,1.4
	l3.7,1.5L1005,415.9l1.6-12.1l11.1-5.1l90-355.6l-5.3-1.3l-3.7-3.7 M914.8,76.8c0.4-1.5,1.4-2.7,2.7-3.4l131.4-69.3
	c0.2-0.1,0.4-0.1,0.6-0.1s0.5,0.1,0.7,0.2l31.1,20.9l-3,1.6l-174,90.1L914.8,76.8z M341,191.7l3.4-2.2l19.2,21.6l-5.3-5.9
	l-26.8,16.1L341,191.7z M333.3,224.7l24.3-14.6l100.5,111.6l-11.7,36l-89,46.1l-50.5-78.2l-1.9-3l-2.8-0.8L333.3,224.7z
	 M462.2,321.9l16.4,18.5l-1.7,5.2l-27.1,14.2L462.2,321.9z M445.8,536l7.6,0.7l17.2,25.8l-1.8,9.1l-2.4,1l-23.2-35.8L445.8,536z
	 M432.4,536.7l0.8,2.8l0.9-0.2l23.8,36.8l-4,1.6l1.1,2.7L325.6,381.8l-66.5-19.1l-195.6,248l37.9,72l435.7,109.5l22.1-51.8
	L456.5,582.8l4.5-1.8l142.8,221.1l-5.8,13.5l0.7-2.8L32.8,671.6L22.5,653l-0.3,0.1l258.6-327.4l18.4,4.9L432.4,536.7z M554.8,740.9
	l-20,46.8L104.1,679.4l-35.9-68.2l192.4-243.9l62.6,17.9L554.8,740.9z M484.5,350.9l-120.7,62.9l-2.4-3.7l118.7-61.7l2.6-8.2l4,3.3
	L484.5,350.9z M991.7,406L686.5,542.4l-6.9-4.4l-6-1l93.5-327.3l-1.9-0.5l-1.9-0.5L669,538.8l-5.5-1.2L492.8,346.9l-4.6-3.2l0.2-0.7
	l-4.9-4.1l-0.5,0.6L345.1,184.4l1.4-8.2l0.8-0.5L574.1,42.8l5.2,4.8l-1.9-0.6l-86.8,286.3l3.7,1.1l70.5-232.6l-59,196.2l21,21.8
	l196.5-103.5l11.5-39.5L603.1,63.2L570.8,82l10.3-33.9l-1.9-0.6l7-4.8l179,153.4l-1,4.2l-0.9-1.7L497.1,337.8l1.8,3.5l264.7-138.4
	l-0.6,2.4l2.2,3.9l10-3.9l-1.3,1.5L992,395.4l1.3-1.5L991.7,406z M574.1,84.7L602.7,68l127.6,110.1L720,213.6L527.6,315l-17.3-18.1
	L574.1,84.7z M1005.4,388.3l-12.1,5.5l1.3-1.5L776.4,203.8l-1.3,1.5l4-13.5L896.5,131l186.6-96l9.3,9.5L1005.4,388.3z"/>
<polygon class="st0" points="337.7,189.2 337.7,189.2 295.9,320.3 295.9,320.3 "/>
</svg>
