<?xml version="1.0" encoding="utf-8"?>
<!-- Generator: Adobe Illustrator 21.0.0, SVG Export Plug-In . SVG Version: 6.00 Build 0)  -->
<svg version="1.1" id="Layer_1" xmlns="http://www.w3.org/2000/svg" xmlns:xlink="http://www.w3.org/1999/xlink" x="0px" y="0px"
	 viewBox="0 0 1417.3 399.6" style="enable-background:new 0 0 1417.3 399.6;" xml:space="preserve">
<style type="text/css">
	.pair {
		animation: pair 10s infinite;
	}
	
	@keyframes pair {
		0%, 10%, 90%, 100% {
			fill: rgba(255,255,255,0);
		}
		23%, 50%, 77% {
			fill: #0074CC;
		}
	}
</style>
<g>
	<path d="M1400.9,26.6c-2.4-4.2-6.8-6.7-11.6-6.7H65.1c-4.6,0-9,2.5-11.5,6.4L15.7,87.8c-2.6,4.2-2.7,9.5-0.2,13.8l157.8,270.9
		c2.4,4.1,6.9,6.7,11.6,6.7h49.4v14.9h5.5v-14.9h27.7v14.9h5.3v-14.9h927.4c4.8,0,9.3-2.6,11.7-6.8l189-332.4
		C1403.3,35.8,1403.3,30.8,1400.9,26.6z M1390.6,34.2l-189,332.4c-0.3,0.5-0.8,0.8-1.4,0.8H185c-0.6,0-1.1-0.3-1.4-0.8L25.8,95.7
		c-0.3-0.5-0.3-1.1,0-1.6l37.9-61.5c0.3-0.5,0.8-0.8,1.4-0.8h1324.2c0.8,0,1.2,0.4,1.4,0.8C1390.8,32.9,1391,33.5,1390.6,34.2z"/>
</g>
<g>
	<g>
		<path d="M986.9,254.2h-68.4c-4,0-7.2,3.2-7.2,7.2v17c0,4,3.2,7.2,7.2,7.2h68.4c4,0,7.2-3.3,7.2-7.2v-17
			C994.1,257.4,990.9,254.2,986.9,254.2z M988.2,278.5c0,0.7-0.6,1.3-1.3,1.3h-68.4c-0.7,0-1.3-0.6-1.3-1.3v-17
			c0-0.7,0.6-1.3,1.3-1.3h68.4c0.7,0,1.3,0.6,1.3,1.3V278.5z"/>
	</g>
	<g>
		<path d="M945.4,310.5c-1.2,1.2-1.2,3,0,4.2l12.3,12.3l-12.1,10.9c-1.2,1.1-1.3,3-0.2,4.2c0.6,0.7,1.4,1,2.2,1
			c0.7,0,1.4-0.3,1.9-0.8l16.8-15.1l-16.7-16.7C948.4,309.3,946.6,309.3,945.4,310.5z"/>
	</g>
</g>
<g>

</g>
<g>
	<g>
		<path d="M1135.3,254.2h-68.4c-4,0-7.2,3.2-7.2,7.2v17c0,4,3.2,7.2,7.2,7.2h68.4c4,0,7.2-3.3,7.2-7.2v-17
			C1142.5,257.4,1139.3,254.2,1135.3,254.2z M1136.6,278.5c0,0.7-0.6,1.3-1.3,1.3h-68.4c-0.7,0-1.3-0.6-1.3-1.3v-17
			c0-0.7,0.6-1.3,1.3-1.3h68.4c0.7,0,1.3,0.6,1.3,1.3V278.5z"/>
	</g>
	<g>
		<path d="M1112,313.8c-1.2,1.2-1.2,3,0,4.2c2.2,2.3,3.5,5.3,3.5,8.5c0,6.6-5.4,12-12,12s-12-5.4-12-12c0-3.6,1.6-6.9,4.3-9.2
			c1.3-1.1,1.5-2.9,0.4-4.2s-2.9-1.5-4.2-0.4c-4.1,3.4-6.4,8.4-6.4,13.7c0,9.9,8,17.9,17.9,17.9s18-8,18-17.8
			c0-4.8-1.9-9.3-5.3-12.7C1115,312.6,1113.2,312.6,1112,313.8z"/>
	</g>
</g>
<g>
	<g>
		<g>
			<g>
				<path d="M1103.5,327c-1.6,0-3-1.3-3-3v-13.4c0-1.6,1.3-3,3-3c1.6,0,3,1.3,3,3V324
					C1106.5,325.7,1105.2,327,1103.5,327z"/>
			</g>
		</g>
	</g>
</g>
<g>
	<g>
		<g>
			<g>
				<rect class="pair" x="1068.4" y="263"  width="65.3" height="13.9"/>
			</g>
		</g>
	</g>
</g>
</svg>
