<?xml version="1.0" encoding="UTF-8"?>
<svg width="960px" height="960px" viewBox="0 0 960 960" version="1.1" xmlns="http://www.w3.org/2000/svg" xmlns:xlink="http://www.w3.org/1999/xlink">
    <!-- Generator: Sketch 60.1 (88133) - https://sketch.com -->
    <title>me.nanoleaf/pair_nanoleaf_canvas</title>
    <style type="text/css">
		.pair {
			animation: pair 10s infinite;
		}
	
		.one {animation: succes-animation-one 10s infinite;}
		.two {animation: succes-animation-two 10s infinite;}
		.three {animation: succes-animation-three 10s infinite;}
		.four {animation: succes-animation-four 10s infinite;}
		.five {animation: succes-animation-five 10s infinite;}
		
		.white {
			fill: rgb(255,255,255);
		}
		
		@keyframes pair {
			0%, 40%, 100% {
				fill: rgba(0,0,0,1);
			}
			5%, 35% {
				fill: #0078CC;
			}
		}
		
		
		@keyframes succes-animation-one {
			0%, 40%, 52%, 58%, 64%, 70%, 76%, 82%, 88%,  100% {
				fill: rgba(0,0,0,1);
			}
		    46%, 94% {
		        fill: #0078CC;
		    }
		}
		@keyframes succes-animation-two {
			0%, 40%, 46%, 58%, 64%, 70%, 76%, 82%, 94%, 100% {
				fill: rgba(0,0,0,1);
			}
		    52%, 88% {
		        fill: #0078CC;
		    }
		}
		@keyframes succes-animation-three {
			0%, 40%, 46%, 52%, 64%, 70%, 76%, 88%, 94%, 100% {
				fill: rgba(0,0,0,1);
			}
		    58%, 82% {
		        fill: #0078CC;
		    }
		}
		@keyframes succes-animation-four {
			0%, 40%, 46%, 52%, 58%, 70%, 82%, 88%, 94%, 100% {
				fill: rgba(0,0,0,1);
			}
		    64%, 76% {
		        fill: #0078CC;
		    }
		}	
		@keyframes succes-animation-five {
			0%, 40%, 46%, 52%, 58%, 64%, 76%, 82%, 88%, 94%, 100% {
				fill: rgba(0,0,0,1);
			}
		    70% {
		        fill: #0078CC;
		    }
		}					
	</style>
    <g id="me.nanoleaf/pair_nanoleaf_canvas" stroke="none" stroke-width="1" fill="none" fill-rule="evenodd">
        <rect id="Rectangle" stroke="#000000" stroke-width="15" stroke-linejoin="round" x="7.5" y="27" width="945" height="907"></rect>
        <rect id="Rectangle" stroke="#000000" stroke-width="5" x="148.5" y="807.5" width="110" height="109" rx="15"></rect>
        <path d="M235.127083,902.127083 L171.872917,902.127083 C166.902354,902.127083 162.872917,898.097646 162.872917,893.127083 L162.872917,830.872917 C162.872917,825.902354 166.902354,821.872917 171.872917,821.872917 L235.127083,821.872917 C240.097646,821.872917 244.127083,825.902354 244.127083,830.872917 L244.127083,893.127083 C244.127083,898.097646 240.097646,902.127083 235.127083,902.127083 Z" class="one" fill="#006FFF"></path>
        <rect id="Rectangle" stroke="#000000" stroke-width="5" x="283.5" y="807.5" width="110" height="109" rx="15"></rect>
        <path d="M370.127083,902.127083 L306.872917,902.127083 C301.902354,902.127083 297.872917,898.097646 297.872917,893.127083 L297.872917,830.872917 C297.872917,825.902354 301.902354,821.872917 306.872917,821.872917 L370.127083,821.872917 C375.097646,821.872917 379.127083,825.902354 379.127083,830.872917 L379.127083,893.127083 C379.127083,898.097646 375.097646,902.127083 370.127083,902.127083 Z" class="two" fill="#006FFF"></path>
        <rect id="Rectangle" stroke="#000000" stroke-width="5" x="418.5" y="807.5" width="110" height="109" rx="15"></rect>
        <path d="M505.127083,902.127083 L441.872917,902.127083 C436.902354,902.127083 432.872917,898.097646 432.872917,893.127083 L432.872917,830.872917 C432.872917,825.902354 436.902354,821.872917 441.872917,821.872917 L505.127083,821.872917 C510.097646,821.872917 514.127083,825.902354 514.127083,830.872917 L514.127083,893.127083 C514.127083,898.097646 510.097646,902.127083 505.127083,902.127083 Z" class="three" fill="#006FFF"></path>
        <rect id="Rectangle" stroke="#000000" stroke-width="5" x="553.5" y="807.5" width="110" height="109" rx="15"></rect>
        <path d="M640.127083,902.127083 L576.872917,902.127083 C571.902354,902.127083 567.872917,898.097646 567.872917,893.127083 L567.872917,830.872917 C567.872917,825.902354 571.902354,821.872917 576.872917,821.872917 L640.127083,821.872917 C645.097646,821.872917 649.127083,825.902354 649.127083,830.872917 L649.127083,893.127083 C649.127083,898.097646 645.097646,902.127083 640.127083,902.127083 Z" class="four" fill="#006FFF"></path>
        <rect id="Rectangle" stroke="#000000" stroke-width="5" x="688.5" y="807.5" width="110" height="109" rx="15"></rect>
        <path d="M775.127083,902.127083 L711.872917,902.127083 C706.902354,902.127083 702.872917,898.097646 702.872917,893.127083 L702.872917,830.872917 C702.872917,825.902354 706.902354,821.872917 711.872917,821.872917 L775.127083,821.872917 C780.097646,821.872917 784.127083,825.902354 784.127083,830.872917 L784.127083,893.127083 C784.127083,898.097646 780.097646,902.127083 775.127083,902.127083 Z" class="five" fill="#006FFF"></path>
        <rect id="Rectangle" stroke="#000000" stroke-width="5" x="823.5" y="807.5" width="110" height="109" rx="15"></rect>
        <path d="M910.127083,902.127083 L846.872917,902.127083 C841.902354,902.127083 837.872917,898.097646 837.872917,893.127083 L837.872917,830.872917 C837.872917,825.902354 841.902354,821.872917 846.872917,821.872917 L910.127083,821.872917 C915.097646,821.872917 919.127083,825.902354 919.127083,830.872917 L919.127083,893.127083 C919.127083,898.097646 915.097646,902.127083 910.127083,902.127083 Z" class="pair" fill="#003AFF"></path>
        <line x1="1" y1="110.811639" x2="929" y2="110.811639" id="Path-4" stroke="#000000" stroke-width="10"></line>
        <path d="M878.788785,894.026081 C862.372329,894.061276 849.035441,880.782033 849,864.366255 C849,864.200103 849.000855,864.033273 849.002889,863.867122 C849.036798,852.883484 855.054876,842.791639 864.70252,837.541248 C866.001215,836.859009 867.605765,837.35882 868.287326,838.656159 C868.968886,839.954854 868.469075,841.559404 867.171736,842.240965 C855.157958,848.725625 850.676612,863.721993 857.16195,875.735093 C863.647288,887.748871 878.642978,892.230895 890.656756,885.744879 C902.669856,879.26022 907.151202,864.263851 900.666543,852.250073 C898.377041,848.009477 894.897352,844.530466 890.656756,842.240965 C889.358739,841.559404 888.859606,839.954854 889.540489,838.656159 C890.22205,837.35882 891.827277,836.859009 893.125294,837.541248 C907.713405,845.476513 913.106889,863.736235 905.170268,878.325024 C899.91174,887.992334 889.793446,894.013804 878.788785,894.026081 L878.788785,894.026081 Z" id="Path" fill="#FFFFFF"></path>
        <path d="M876.191395,832.59739 C876.250395,831.188153 877.37887,830.059001 878.788785,830 C880.219723,830.00746 881.378037,831.165774 881.385497,832.59739 L881.385497,855.586668 C881.459418,857.020319 880.357392,858.240347 878.924419,858.313589 C877.492124,858.386831 876.27074,857.284806 876.198176,855.851833 C876.193429,855.763671 876.193429,855.675509 876.198176,855.586668 L876.191395,832.59739 Z" id="Path" fill="#FFFFFF"></path>
        <line x1="102.525981" y1="23" x2="103" y2="907" id="Path-3" stroke="#000000" stroke-width="10"></line>
    </g>
</svg>