<svg id="Layer_1" data-name="Layer 1" xmlns="http://www.w3.org/2000/svg" viewBox="0 0 1417.32 1363.22">
	<defs>
<style type="text/css">
	.pair-button {
		animation: pair 10s infinite;
	}

	.one {animation: succes-animation-one 10s infinite;}
	.two {animation: succes-animation-two 10s infinite;}
	.three {animation: succes-animation-three 10s infinite;}
	.four {animation: succes-animation-four 10s infinite;}
	.five {animation: succes-animation-five 10s infinite;}
	
	.white {
		fill: rgb(255,255,255);
	}
	
	@keyframes pair {
		0%, 40%, 100% {
			fill: rgba(0,0,0,1);
		}
		5%, 35% {
			fill: #0078CC;
		}
	}
	
	
	@keyframes succes-animation-one {
		0%, 40%, 52%, 58%, 64%, 70%, 76%, 82%, 88%,  100% {
			fill: rgba(0,0,0,1);
		}
	    46%, 94% {
	        fill: #0078CC;
	    }
	}
	@keyframes succes-animation-two {
		0%, 40%, 46%, 58%, 64%, 70%, 76%, 82%, 94%, 100% {
			fill: rgba(0,0,0,1);
		}
	    52%, 88% {
	        fill: #0078CC;
	    }
	}
	@keyframes succes-animation-three {
		0%, 40%, 46%, 52%, 64%, 70%, 76%, 88%, 94%, 100% {
			fill: rgba(0,0,0,1);
		}
	    58%, 82% {
	        fill: #0078CC;
	    }
	}
	@keyframes succes-animation-four {
		0%, 40%, 46%, 52%, 58%, 70%, 82%, 88%, 94%, 100% {
			fill: rgba(0,0,0,1);
		}
	    64%, 76% {
	        fill: #0078CC;
	    }
	}	
	@keyframes succes-animation-five {
		0%, 40%, 46%, 52%, 58%, 64%, 76%, 82%, 88%, 94%, 100% {
			fill: rgba(0,0,0,1);
		}
	    70% {
	        fill: #0078CC;
	    }
	}					
</style>
	</defs>
	<title>Pair Nanoleaf canvas</title>

	<rect class="one" x="1043.08" y="1189.08" width="116.49" height="116.49" rx="9.87" ry="9.87" transform="translate(2348.64 146) rotate(90)"/>
	<rect class="two" x="842.61" y="1189.08" width="116.49" height="116.49" rx="9.87" ry="9.87" transform="translate(2148.18 346.46) rotate(90)"/>
	<rect class="three" x="642.15" y="1189.08" width="116.49" height="116.49" rx="9.87" ry="9.87" transform="translate(1947.71 546.93) rotate(90)"/>
	<rect class="four" x="441.69" y="1189.08" width="116.49" height="116.49" rx="9.87" ry="9.87" transform="translate(1747.25 747.39) rotate(90)"/>
	<rect class="five" x="241.22" y="1189.08" width="116.49" height="116.49" rx="9.87" ry="9.87" transform="translate(1546.78 947.85) rotate(90)"/>
	<path d="M561.74,1332.39H438.12a23.29,23.29,0,0,1-23.26-23.26V1185.51a23.29,23.29,0,0,1,23.26-23.26H561.74A23.29,23.29,0,0,1,585,1185.51v123.61A23.29,23.29,0,0,1,561.74,1332.39ZM438.12,1166a19.51,19.51,0,0,0-19.49,19.49v123.61a19.51,19.51,0,0,0,19.49,19.49H561.74a19.51,19.51,0,0,0,19.49-19.49V1185.51A19.51,19.51,0,0,0,561.74,1166Z"/><path d="M361.27,1332.39H237.66a23.29,23.29,0,0,1-23.26-23.26V1185.51a23.29,23.29,0,0,1,23.26-23.26H361.27a23.29,23.29,0,0,1,23.26,23.26v123.61A23.29,23.29,0,0,1,361.27,1332.39ZM237.66,1166a19.51,19.51,0,0,0-19.49,19.49v123.61a19.51,19.51,0,0,0,19.49,19.49H361.27a19.51,19.51,0,0,0,19.49-19.49V1185.51A19.51,19.51,0,0,0,361.27,1166Z"/><path d="M962.66,1332.39H839.05a23.29,23.29,0,0,1-23.26-23.26V1185.51a23.29,23.29,0,0,1,23.26-23.26H962.66a23.29,23.29,0,0,1,23.26,23.26v123.61A23.29,23.29,0,0,1,962.66,1332.39ZM839.05,1166a19.51,19.51,0,0,0-19.49,19.49v123.61a19.51,19.51,0,0,0,19.49,19.49H962.66a19.51,19.51,0,0,0,19.49-19.49V1185.51A19.51,19.51,0,0,0,962.66,1166Z"/><path d="M762.2,1332.39H638.59a23.29,23.29,0,0,1-23.26-23.26V1185.51a23.29,23.29,0,0,1,23.26-23.26H762.2a23.29,23.29,0,0,1,23.26,23.26v123.61A23.29,23.29,0,0,1,762.2,1332.39ZM638.59,1166a19.51,19.51,0,0,0-19.49,19.49v123.61a19.51,19.51,0,0,0,19.49,19.49H762.2a19.51,19.51,0,0,0,19.49-19.49V1185.51A19.51,19.51,0,0,0,762.2,1166Z"/><path d="M1363.59,1332.39H1240a23.29,23.29,0,0,1-23.26-23.26V1185.51a23.29,23.29,0,0,1,23.26-23.26h123.61a23.29,23.29,0,0,1,23.26,23.26v123.61A23.29,23.29,0,0,1,1363.59,1332.39ZM1240,1166a19.51,19.51,0,0,0-19.49,19.49v123.61a19.51,19.51,0,0,0,19.49,19.49h123.61a19.51,19.51,0,0,0,19.49-19.49V1185.51a19.51,19.51,0,0,0-19.49-19.49Z"/><path d="M1163.13,1332.39H1039.52a23.29,23.29,0,0,1-23.26-23.26V1185.51a23.29,23.29,0,0,1,23.26-23.26h123.61a23.29,23.29,0,0,1,23.26,23.26v123.61A23.29,23.29,0,0,1,1163.13,1332.39ZM1039.52,1166a19.51,19.51,0,0,0-19.49,19.49v123.61a19.51,19.51,0,0,0,19.49,19.49h123.61a19.51,19.51,0,0,0,19.49-19.49V1185.51a19.51,19.51,0,0,0-19.49-19.49Z"/><path class="pair-button" d="M1350.16,1189.08h-96.75a9.87,9.87,0,0,0-9.87,9.87v96.75a9.87,9.87,0,0,0,9.87,9.87h96.75a9.87,9.87,0,0,0,9.87-9.87v-96.75A9.87,9.87,0,0,0,1350.16,1189.08Zm-52.38,14.87a4,4,0,0,1,3.83-3.83,3.85,3.85,0,0,1,3.83,3.83v33.9a3.83,3.83,0,1,1-7.65,0Zm3.83,90.58a43.83,43.83,0,0,1-43.92-44.47,44.35,44.35,0,0,1,23.15-38.82,3.91,3.91,0,1,1,3.64,6.93,36.45,36.45,0,1,0,34.63,0,3.91,3.91,0,0,1,3.64-6.93,44.34,44.34,0,0,1-21.14,83.29Z"/>	
	<polygon points="144.59 1330.5 148.35 1330.5 148.35 136.37 1370.8 136.37 1370.8 132.6 148.35 132.6 148.35 0 144.59 0 144.59 132.6 0 132.6 0 136.37 144.59 136.37 144.59 1330.5" fill="#CCCCCC"/>
	<path d="M1408.52,0V1354.42H0v8.8H1412.92a4.4,4.4,0,0,0,4.4-4.4V0Z"/>
</svg>