<?xml version="1.0" encoding="UTF-8"?>
<svg width="960px" height="960px" viewBox="0 0 960 960" version="1.1" xmlns="http://www.w3.org/2000/svg" xmlns:xlink="http://www.w3.org/1999/xlink">
    <!-- Generator: Sketch 60.1 (88133) - https://sketch.com -->
    <title>me.nanoleaf/nanoleaf canvas</title>
    <desc>Created with Sketch.</desc>
    <g id="me.nanoleaf/nanoleaf-canvas" stroke="none" stroke-width="1" fill="none" fill-rule="evenodd" stroke-linejoin="round">
        <path d="M659.084911,336.460823 L653.385283,860.811804 L422.304373,946.062985 L404.984153,936.251082 L404.984153,651.846536 L129.682917,704.328747 L112.93322,693.479621 L112.93322,341.002648 L404.984153,327.152556 L404.984153,15.0685819 L534.752604,30.5470934 L534.737162,30.5452637 L847.81843,67.3952703 L841.257719,328.850175 L659.084911,336.460823 Z" id="Outline" stroke="#000000" stroke-width="20" stroke-linecap="square"></path>
        <polygon id="Fill-6" stroke="#000000" stroke-width="20" points="415 25 415 929.346511 423.206429 934 643.319034 852.716267 652 53.2969273"></polygon>
        <polygon id="Stroke-8" stroke="#000000" stroke-width="20" points="415 25 415 929.346511 423.206429 934 643.319034 852.716267 652 53.2969273"></polygon>
        <polygon id="Fill-10" stroke="#000000" stroke-width="20" points="123 350.162834 422.352057 336 423 637.622109 131.827234 693 123 687.294379"></polygon>
        <polygon id="Stroke-12" stroke="#000000" stroke-width="20" points="123 350.162834 422.352057 336 423 637.622109 131.827234 693 123 687.294379"></polygon>
        <polyline id="Fill-14" stroke="#000000" stroke-width="20" points="533.547847 39.5922996 837.527249 75.4193416 831.429757 318.708819 421.910828 335.841865"></polyline>
        <polyline id="Stroke-16" stroke="#000000" stroke-width="20" points="533.547847 39.5922996 837.527249 75.4193416 831.429757 318.708819 421.910828 335.841865"></polyline>
        <line x1="647.871" y1="393.987873" x2="651.9435" y2="54.01734" id="Fill-18" stroke="#000000" stroke-width="20"></line>
        <line x1="300.018172" y1="661.16429" x2="648.656683" y2="592.195097" id="Fill-22" stroke="#000000" stroke-width="20"></line>
        <line x1="300.018172" y1="661.16429" x2="648.656683" y2="592.195097" id="Stroke-24" stroke="#000000" stroke-width="20"></line>
        <line x1="422.938" y1="934.626325" x2="421.218" y2="26.7809702" id="Fill-26" stroke="#000000" stroke-width="20"></line>
        <line x1="422.938" y1="934.626325" x2="421.218" y2="26.7809702" id="Stroke-28" stroke="#000000" stroke-width="20"></line>
        <line x1="131.7798" y1="692.462953" x2="131.7798" y2="349.433847" id="Fill-30" stroke="#000000" stroke-width="20"></line>
        <line x1="131.7798" y1="692.462953" x2="131.7798" y2="349.433847" id="Stroke-32" stroke="#000000" stroke-width="20"></line>
    </g>
</svg>