<svg id="Layer_1" data-name="Layer 1" xmlns="http://www.w3.org/2000/svg" viewBox="0 0 1118.71 1417.32"><title>Nanoleaf Canvas</title><path d="M1108,76.62,642.4,21.77,460.83.09a12.15,12.15,0,0,0-13.59,12.06V476.31L11.57,497A12.15,12.15,0,0,0,0,509.13v517.36a12.15,12.15,0,0,0,5.54,10.19l13.5,8.76a12.15,12.15,0,0,0,8.89,1.74l419.31-80V1398a12.15,12.15,0,0,0,6.16,10.57l12.58,7.13a12.15,12.15,0,0,0,10.2.83L813.48,1292a12.15,12.15,0,0,0,7.94-11.26l8.65-796.24,267.66-11.19a12.15,12.15,0,0,0,11.64-11.83L1118.7,89A12.15,12.15,0,0,0,1108,76.62ZM462,1396V954.06l6.4-1.22,1,447.29ZM815.46,469.77,472.59,484.11h0l-1-468.44,348.36,41.6-.49,45ZM466.38,15l1,469.31-5.39.26V14.51Zm1,474.52.49,230.28.49,226.28L462,947.39V489.81ZM456.78,948.42,282.21,983.07h0l-254,48.46V510.4l428.53-20.34Zm-442,76.09V511l8.3-.39v519.24Zm459.81,376.36-1-449h0v-1.45l337.38-67-4.29,394.78Zm-1-455.78-1-455.77L815.41,475l-1.09,100.55h0L811,878.12ZM820.67,469.55l3.82-352.19.65-59.78,278.75,32.84-9.22,367.67Z"/></svg>
