<?xml version="1.0" encoding="UTF-8"?>
<svg width="960px" height="960px" viewBox="0 0 960 960" version="1.1" xmlns="http://www.w3.org/2000/svg" xmlns:xlink="http://www.w3.org/1999/xlink">
    <!-- Generator: Sketch 60.1 (88133) - https://sketch.com -->
    <title>me.nanoleaf/pair_nanoleaf_aurora</title>
    <style type="text/css">
		.pair {
			animation: pair 10s infinite;
		}
		
		@keyframes pair {
			0%, 10%, 90%, 100% {
				fill: rgba(255,255,255,0);
			}
			23%, 50%, 77% {
				fill: #0078CC;
			}
		}
	</style>
    <g id="me.nanoleaf/pair_nanoleaf_aurora" stroke="none" stroke-width="1" fill="none" fill-rule="evenodd">
        <g id="Group" transform="translate(616.755994, 516.558533)" fill="#000000" fill-rule="nonzero">
            <path d="M51.3850494,0.135401975 L5.07757405,0.135401975 C2.36953456,0.135401975 0.203102962,2.30183357 0.203102962,5.00987306 L0.203102962,16.5190409 C0.203102962,19.2270804 2.36953456,21.393512 5.07757405,21.393512 L51.3850494,21.393512 C54.0930889,21.393512 56.2595205,19.1593794 56.2595205,16.5190409 L56.2595205,5.00987306 C56.2595205,2.30183357 54.0930889,0.135401975 51.3850494,0.135401975 Z M52.2651622,16.5867419 C52.2651622,17.0606488 51.8589563,17.4668547 51.3850494,17.4668547 L5.07757405,17.4668547 C4.60366714,17.4668547 4.19746121,17.0606488 4.19746121,16.5867419 L4.19746121,5.07757405 C4.19746121,4.60366714 4.60366714,4.19746121 5.07757405,4.19746121 L51.3850494,4.19746121 C51.8589563,4.19746121 52.2651622,4.60366714 52.2651622,5.07757405 L52.2651622,16.5867419 Z" id="Shape"></path>
            <path d="M23.2891396,38.2510578 C22.4767278,39.0634697 22.4767278,40.2820875 23.2891396,41.0944993 L31.6163611,49.4217207 L23.4245416,56.8011284 C22.6121298,57.5458392 22.5444288,58.832158 23.2891396,59.6445698 C23.6953456,60.1184767 24.2369535,60.3215797 24.7785614,60.3215797 C25.2524683,60.3215797 25.7263752,60.1184767 26.0648801,59.7799718 L37.438646,49.5571227 L26.1325811,38.2510578 C25.3201693,37.438646 24.1015515,37.438646 23.2891396,38.2510578 Z" id="Path"></path>
        </g>
        <path d="M768.609309,516.693935 L722.301834,516.693935 C719.593794,516.693935 717.427363,518.860367 717.427363,521.568406 L717.427363,533.077574 C717.427363,535.785614 719.593794,537.952045 722.301834,537.952045 L768.609309,537.952045 C771.317348,537.952045 773.48378,535.717913 773.48378,533.077574 L773.48378,521.568406 C773.48378,518.860367 771.317348,516.693935 768.609309,516.693935 Z M769.489422,533.145275 C769.489422,533.619182 769.083216,534.025388 768.609309,534.025388 L722.301834,534.025388 C721.827927,534.025388 721.421721,533.619182 721.421721,533.145275 L721.421721,521.636107 C721.421721,521.1622 721.827927,520.755994 722.301834,520.755994 L768.609309,520.755994 C769.083216,520.755994 769.489422,521.1622 769.489422,521.636107 L769.489422,533.145275 Z" id="Shape" fill="#000000" fill-rule="nonzero"></path>
        <path d="M752.834979,557.043724 C752.022567,557.856135 752.022567,559.074753 752.834979,559.887165 C754.324401,561.444288 755.204513,563.475317 755.204513,565.641749 C755.204513,570.110014 751.54866,573.765867 747.080395,573.765867 C742.61213,573.765867 738.956276,570.110014 738.956276,565.641749 C738.956276,563.204513 740.039492,560.970381 741.867419,559.413258 C742.747532,558.668547 742.882934,557.449929 742.138223,556.569817 C741.393512,555.689704 740.174894,555.554302 739.294781,556.299013 C736.519041,558.600846 734.961918,561.985896 734.961918,565.574048 C734.961918,572.276446 740.377997,577.692525 747.080395,577.692525 C753.782793,577.692525 759.266573,572.276446 759.266573,565.641749 C759.266573,562.392102 757.980254,559.345557 755.67842,557.043724 C754.866008,556.231312 753.647391,556.231312 752.834979,557.043724 Z" id="Path" fill="#000000" fill-rule="nonzero"></path>
        <path d="M747.080395,565.980254 C745.997179,565.980254 745.049365,565.100141 745.049365,563.949224 L745.049365,554.877292 C745.049365,553.794076 745.929478,552.846262 747.080395,552.846262 C748.163611,552.846262 749.111425,553.726375 749.111425,554.877292 L749.111425,563.949224 C749.111425,565.100141 748.231312,565.980254 747.080395,565.980254 Z" id="Path" fill="#000000" fill-rule="nonzero"></path>
        <polygon id="Path-10" stroke="#000000" stroke-width="15" stroke-linejoin="round" points="12.9827138 408.293728 122.057425 596.673297 814.288781 596.673297 948.423131 362.606488 42.1212494 362.606488"></polygon>
        <line x1="160.915117" y1="617.407616" x2="160.915117" y2="602.673297" id="Path-11" stroke="#000000" stroke-width="8"></line>
        <line x1="183.021055" y1="617.407616" x2="183.021055" y2="602.673297" id="Path-12" stroke="#000000" stroke-width="8"></line>
        <rect class="pair" fill="#006FEC" fill-rule="nonzero" x="723.317348" y="522.651622" width="44.2087447" height="9.41043724"></rect>
    </g>
</svg>